<?xml version="1.0" encoding="UTF-8" standalone="no"?>
<svg
   xmlns:dc="http://purl.org/dc/elements/1.1/"
   xmlns:cc="http://creativecommons.org/ns#"
   xmlns:rdf="http://www.w3.org/1999/02/22-rdf-syntax-ns#"
   xmlns:svg="http://www.w3.org/2000/svg"
   xmlns="http://www.w3.org/2000/svg"
   xmlns:sodipodi="http://sodipodi.sourceforge.net/DTD/sodipodi-0.dtd"
   xmlns:inkscape="http://www.inkscape.org/namespaces/inkscape"
   viewBox="0 0 512 512"
   version="1.1"
   id="svg4"
   sodipodi:docname="eye-slash.svg"
   inkscape:export-filename="E:\dev\ktane_4d_maze\Assets\4DMaze\Textures\eye-slash.png"
   inkscape:export-xdpi="96"
   inkscape:export-ydpi="96"
   inkscape:version="1.0.1 (3bc2e813f5, 2020-09-07)"
   width="512"
   height="512">
  <metadata
     id="metadata10">
    <rdf:RDF>
      <cc:Work
         rdf:about="">
        <dc:format>image/svg+xml</dc:format>
        <dc:type
           rdf:resource="http://purl.org/dc/dcmitype/StillImage" />
        <dc:title></dc:title>
      </cc:Work>
    </rdf:RDF>
  </metadata>
  <defs
     id="defs8" />
  <sodipodi:namedview
     pagecolor="#ffffff"
     bordercolor="#666666"
     borderopacity="1"
     objecttolerance="10"
     gridtolerance="10"
     guidetolerance="10"
     inkscape:pageopacity="0"
     inkscape:pageshadow="2"
     inkscape:window-width="1858"
     inkscape:window-height="1057"
     id="namedview6"
     showgrid="false"
     inkscape:zoom="0.90429687"
     inkscape:cx="118.5462"
     inkscape:cy="206.32552"
     inkscape:window-x="54"
     inkscape:window-y="-8"
     inkscape:window-maximized="1"
     inkscape:current-layer="svg4"
     inkscape:document-rotation="0"
     inkscape:snap-bbox="true"
     inkscape:bbox-paths="true"
     inkscape:bbox-nodes="true"
     inkscape:snap-bbox-edge-midpoints="true"
     inkscape:snap-bbox-midpoints="true"
     inkscape:object-paths="true"
     inkscape:snap-intersection-paths="true"
     inkscape:snap-smooth-nodes="true"
     inkscape:snap-midpoints="true"
     inkscape:snap-object-midpoints="true"
     inkscape:snap-center="true"
     inkscape:snap-text-baseline="true"
     inkscape:snap-page="true" />
  <path
     d="m 255.99999,156.83315 a 98.228312,98.228312 0 0 0 -27.66047,4.42709 49.052177,49.052177 0 0 1 6.41043,23.90629 49.583428,49.583428 0 0 1 -49.58343,49.58343 49.052177,49.052177 0 0 1 -23.9063,-6.41043 98.910084,98.910084 0 1 0 94.73977,-71.50638 z m 251.91924,86.23974 C 459.90299,149.38678 364.84448,85.99968 255.99999,85.99968 c -108.84448,0 -203.929548,63.43137 -251.9192214,157.08207 a 28.643284,28.643284 0 0 0 0,25.84536 C 52.097005,362.61322 147.15551,426.00032 255.99999,426.00032 c 108.84449,0 203.92956,-63.43137 251.91924,-157.08207 a 28.643284,28.643284 0 0 0 0,-25.84536 z M 255.99999,383.50024 C 168.65347,383.50024 88.576241,334.80223 45.332409,256 88.576241,177.19777 168.64461,128.49976 255.99999,128.49976 c 87.35537,0 167.42376,48.69801 210.6676,127.50024 -43.23498,78.80223 -123.31223,127.50024 -210.6676,127.50024 z"
     id="path2"
     style="fill:#7f7f00;fill-opacity:1;stroke-width:1" />
  <rect
     style="fill:#7f7f00;fill-opacity:1;stroke:#020000;stroke-width:32;stroke-linecap:round;stroke-linejoin:round;stroke-miterlimit:4;stroke-dasharray:none;stroke-opacity:1"
     id="rect844"
     width="512"
     height="128"
     x="106.03867"
     y="-64"
     ry="64"
     transform="rotate(45)" />
</svg>
