<?xml version="1.0" encoding="UTF-8" standalone="no"?>
<svg
   xmlns:dc="http://purl.org/dc/elements/1.1/"
   xmlns:cc="http://creativecommons.org/ns#"
   xmlns:rdf="http://www.w3.org/1999/02/22-rdf-syntax-ns#"
   xmlns:svg="http://www.w3.org/2000/svg"
   xmlns="http://www.w3.org/2000/svg"
   xmlns:sodipodi="http://sodipodi.sourceforge.net/DTD/sodipodi-0.dtd"
   xmlns:inkscape="http://www.inkscape.org/namespaces/inkscape"
   viewBox="0 0 640 640"
   version="1.1"
   id="svg835"
   sodipodi:docname="eye-slash.svg"
   inkscape:export-filename="E:\dev\ktane_4d_maze\Assets\4DMaze\Textures\eye-slash.png"
   inkscape:export-xdpi="96"
   inkscape:export-ydpi="96"
   inkscape:version="1.0.1 (3bc2e813f5, 2020-09-07)"
   width="640"
   height="640">
  <metadata
     id="metadata841">
    <rdf:RDF>
      <cc:Work
         rdf:about="">
        <dc:format>image/svg+xml</dc:format>
        <dc:type
           rdf:resource="http://purl.org/dc/dcmitype/StillImage" />
        <dc:title />
      </cc:Work>
    </rdf:RDF>
  </metadata>
  <defs
     id="defs839" />
  <sodipodi:namedview
     pagecolor="#ffffff"
     bordercolor="#666666"
     borderopacity="1"
     objecttolerance="10"
     gridtolerance="10"
     guidetolerance="10"
     inkscape:pageopacity="0"
     inkscape:pageshadow="2"
     inkscape:window-width="1858"
     inkscape:window-height="1057"
     id="namedview837"
     showgrid="false"
     inkscape:zoom="1.1234375"
     inkscape:cx="311.16605"
     inkscape:cy="340.82478"
     inkscape:window-x="54"
     inkscape:window-y="-8"
     inkscape:window-maximized="1"
     inkscape:current-layer="svg835"
     inkscape:document-rotation="0"
     inkscape:snap-bbox="true"
     inkscape:bbox-paths="true"
     inkscape:bbox-nodes="true"
     inkscape:snap-bbox-edge-midpoints="true"
     inkscape:snap-bbox-midpoints="true"
     inkscape:object-paths="true"
     inkscape:snap-intersection-paths="true"
     inkscape:snap-smooth-nodes="true"
     inkscape:snap-midpoints="true"
     inkscape:snap-object-midpoints="true"
     inkscape:snap-center="true"
     inkscape:snap-text-baseline="true"
     inkscape:snap-page="true" />
  <path
     d="M 634,535 36.000001,67.509999 a 16,16 0 0 0 -22.49,2.49 l -10.0000003,12.49 A 16,16 0 0 0 6.0000007,105 L 604,572.49 A 16,16 0 0 0 626.49,570 l 10,-12.49 A 16,16 0 0 0 634,535 Z M 296.79,210.47 431.58,315.85 C 429.36,255.91 380.48,208 320,208 a 112.26,112.26 0 0 0 -23.21,2.47 z M 343.21,429.54 208.42,324.16 C 210.65,384.09 259.53,432 320,432 a 113,113 0 0 0 23.21,-2.46 z M 320,176 c 98.65,0 189.09,55 237.93,144 a 285.53,285.53 0 0 1 -44,60.2 l 37.74,29.5 a 333.7,333.7 0 0 0 52.9,-75.11 32.35,32.35 0 0 0 0,-29.19 C 550.29,199.59 442.93,128 320,128 c -36.7,0 -71.71,7 -104.63,18.81 l 46.41,36.29 C 280.72,178.8 300.12,176 320,176 Z m 0,288 C 221.35,464 130.92,409 82.070001,320 A 285.47,285.47 0 0 1 126.12,259.81 l -37.739999,-29.5 a 333.6,333.6 0 0 0 -52.89,75.1 32.35,32.35 0 0 0 0,29.19 C 89.720001,440.41 197.08,512 320,512 c 36.7,0 71.71,-7.05 104.63,-18.81 L 378.22,456.91 C 359.28,461.2 339.89,464 320,464 Z"
     id="path833"
     style="fill:#ffffff;fill-opacity:1" />
</svg>
