<?xml version="1.0" encoding="UTF-8" standalone="no"?>
<svg
   xmlns:dc="http://purl.org/dc/elements/1.1/"
   xmlns:cc="http://creativecommons.org/ns#"
   xmlns:rdf="http://www.w3.org/1999/02/22-rdf-syntax-ns#"
   xmlns:svg="http://www.w3.org/2000/svg"
   xmlns="http://www.w3.org/2000/svg"
   xmlns:sodipodi="http://sodipodi.sourceforge.net/DTD/sodipodi-0.dtd"
   xmlns:inkscape="http://www.inkscape.org/namespaces/inkscape"
   viewBox="0 0 576 576"
   version="1.1"
   id="svg4"
   sodipodi:docname="eye.svg"
   inkscape:export-filename="E:\dev\ktane_4d_maze\Assets\4DMaze\Textures\eye.png"
   inkscape:export-xdpi="96"
   inkscape:export-ydpi="96"
   inkscape:version="1.0.1 (3bc2e813f5, 2020-09-07)"
   width="576"
   height="576">
  <metadata
     id="metadata10">
    <rdf:RDF>
      <cc:Work
         rdf:about="">
        <dc:format>image/svg+xml</dc:format>
        <dc:type
           rdf:resource="http://purl.org/dc/dcmitype/StillImage" />
        <dc:title></dc:title>
      </cc:Work>
    </rdf:RDF>
  </metadata>
  <defs
     id="defs8" />
  <sodipodi:namedview
     pagecolor="#ffffff"
     bordercolor="#666666"
     borderopacity="1"
     objecttolerance="10"
     gridtolerance="10"
     guidetolerance="10"
     inkscape:pageopacity="0"
     inkscape:pageshadow="2"
     inkscape:window-width="1858"
     inkscape:window-height="1057"
     id="namedview6"
     showgrid="false"
     inkscape:zoom="0.63943445"
     inkscape:cx="204.77821"
     inkscape:cy="239.69345"
     inkscape:window-x="54"
     inkscape:window-y="-8"
     inkscape:window-maximized="1"
     inkscape:current-layer="svg4"
     inkscape:document-rotation="0"
     inkscape:snap-bbox="true"
     inkscape:bbox-paths="true"
     inkscape:bbox-nodes="true"
     inkscape:snap-bbox-edge-midpoints="true"
     inkscape:snap-bbox-midpoints="true"
     inkscape:object-paths="true"
     inkscape:snap-intersection-paths="true"
     inkscape:snap-smooth-nodes="true"
     inkscape:snap-midpoints="true"
     inkscape:snap-object-midpoints="true"
     inkscape:snap-center="true"
     inkscape:snap-text-baseline="true"
     inkscape:snap-page="true" />
  <path
     d="m 288,176 a 110.94,110.94 0 0 0 -31.24,5 55.4,55.4 0 0 1 7.24,27 56,56 0 0 1 -56,56 55.4,55.4 0 0 1 -27,-7.24 A 111.71,111.71 0 1 0 288,176 Z m 284.52,97.4 C 518.29,167.59 410.93,96.000001 288,96.000001 165.07,96.000001 57.680001,167.64 3.480001,273.41 a 32.35,32.35 0 0 0 0,29.19 C 57.710001,408.41 165.07,480 288,480 410.93,480 518.32,408.36 572.52,302.59 a 32.35,32.35 0 0 0 0,-29.19 z M 288,432 C 189.35,432 98.910001,377 50.070001,288 98.910001,199 189.34,144 288,144 386.66,144 477.09,199 525.93,288 477.1,377 386.66,432 288,432 Z"
     id="path2"
     style="fill:#ffffff;fill-opacity:1" />
</svg>
